<?xml version="1.0" encoding="utf-8"?>
<!-- Generator: Adobe Illustrator 19.2.0, SVG Export Plug-In . SVG Version: 6.00 Build 0)  -->
<svg version="1.1" id="Layer_1" xmlns="http://www.w3.org/2000/svg" xmlns:xlink="http://www.w3.org/1999/xlink" x="0px" y="0px"
	 viewBox="0 0 295 50" style="enable-background:new 0 0 295 50;" xml:space="preserve">
<style type="text/css">
	.st0{fill:#FFFFFF;}
	.st1{fill-rule:evenodd;clip-rule:evenodd;fill:#E30613;}
</style>
<g>
	<path class="st0" d="M270.7,50c-6.6,0-12.3-2.4-17-7.1v6.4H248c-7.6,0-13.4-1.3-17.7-4l-0.1-0.1c-1.7-1.1-3.2-2.4-4.5-3.7v7.8
		L171,49.3v-2.7c-0.1,0-0.1,0.1-0.2,0.1c-1.2,0.8-2.6,1.4-4,1.7c-1.2,0.3-2.5,0.6-3.9,0.7c-1.3,0.1-2.6,0.2-4,0.2H138v-7.1
		c-0.1,0.1-0.2,0.2-0.3,0.4c-4.8,4.9-10.5,7.4-17.2,7.4c-6.6,0-12.3-2.4-17-7.1v6.4h-5.7c-7.6,0-13.4-1.3-17.7-4l-0.1-0.1
		c-3.1-2.1-5.6-4.6-7.4-7.4c-1,1.7-2.2,3.3-3.6,4.8C64,47.5,58.2,50,51.6,50c-6.6,0-12.3-2.4-17-7.1v6.4h-5.7
		c-7.6,0-13.4-1.3-17.7-4L11,45.2C3.9,40.4,0.1,33.4,0,25c0-8.5,3.9-15.4,11-20.2l0.1-0.1c4.3-2.7,10.1-4,17.7-4h5.7v6.4
		c4.7-4.7,10.4-7,17-7.1c6.7,0,12.5,2.5,17.2,7.4c1.4,1.5,2.7,3.1,3.7,4.8c1.8-2.9,4.3-5.3,7.4-7.4L80,4.7c4.3-2.7,10.1-4,17.7-4
		h5.7v6.4c4.7-4.7,10.4-7,17-7.1c6.7,0,12.5,2.5,17.2,7.4c0.8,0.9,1.6,1.8,2.3,2.7c2.8-6.4,8.6-10,16.9-10.1l0.1,0l0.1,0
		c5.3,0,9.7,1.6,13.2,4.6c1.5,1.3,2.8,2.8,3.7,4.4c0.7-1.3,1.6-2.5,2.7-3.5c3.6-3.6,8.3-5.5,14-5.6c5.5,0,10.1,1.6,13.7,4.7
		c0.1,0.1,0.1,0.1,0.2,0.2V0.7h21.3v7.8c1.3-1.3,2.8-2.6,4.5-3.7l0.1-0.1c4.3-2.7,10.1-4,17.7-4h5.7v6.4c4.7-4.7,10.4-7,17-7.1
		c6.7,0,12.5,2.5,17.2,7.4c4.7,4.9,7,10.8,7.1,17.5c0,6.8-2.4,12.8-7,17.6C283.2,47.5,277.4,50,270.7,50z M255.7,25
		c0,4.3,1.5,8,4.5,11.1c2.9,3,6.4,4.4,10.5,4.5c4.1,0,7.5-1.5,10.4-4.5c2.9-3.1,4.4-6.7,4.4-11.1c0-4.3-1.5-7.9-4.4-11
		c-2.9-3-6.4-4.5-10.5-4.5c-4.1,0-7.5,1.5-10.5,4.5C257.2,17,255.8,20.7,255.7,25z M105.4,25c0,4.3,1.5,8,4.5,11.1
		c2.9,3,6.4,4.4,10.5,4.5c4.1,0,7.5-1.5,10.4-4.5c2.9-3.1,4.4-6.7,4.4-11.1c0-4.3-1.5-7.9-4.4-11c-2.9-3-6.4-4.5-10.5-4.5
		c-4.1,0-7.5,1.5-10.5,4.5C106.9,17,105.4,20.7,105.4,25z M36.6,25c0,4.3,1.5,8,4.5,11.1c2.9,3,6.4,4.4,10.5,4.5
		c4.1,0,7.5-1.5,10.4-4.5c2.9-3.1,4.4-6.7,4.4-11.1c0-4.3-1.5-7.9-4.4-11c-2.9-3-6.4-4.5-10.5-4.5C47.4,9.5,44,11,41,14
		C38.1,17,36.6,20.7,36.6,25z M213.8,39.9h2.5V10.2h-2.5V39.9z M198.6,39.9h2.4v-7.3c0.1-3-0.9-3.3-1.7-3.5l-3.2-1l0.1,0.1
		c1.6,1.4,2.3,3.5,2.3,6.2V39.9z M147.4,39.9h2.2V19.1c-0.1-2.8,0.7-5,2.2-6.6c0.9-1,2.6-2.1,5.3-2.1l0.2,0c4.2,0.2,7,2.9,7.2,7
		l0,0.2l0,0.2c0,1-0.2,2-0.7,2.9l0.9-0.7c1.1-0.9,1.5-1.8,1.6-3.2c0-2-0.8-3.5-2.4-4.9c-1.8-1.5-4.1-2.3-7.1-2.3
		c-7.7,0.2-9.3,4.4-9.5,10.6L147.4,39.9z M180.4,39.8h2.5V20c-0.1-3.1,0.7-5.5,2.3-7.2c1-1,2.8-2.2,5.6-2.2c2,0,3.9,0.6,5.3,1.9
		l0.4,0.4c1.4,1.5,2.1,3.4,2.1,5.4c0,0.7-0.1,1.5-0.3,2.2c1.7-1,2.1-2.1,2.1-3.4c0-2.1-0.8-3.8-2.5-5.2c-1.9-1.6-4.4-2.4-7.6-2.4
		c-3.1,0-5.5,0.9-7.3,2.7c-1.8,1.9-2.7,4.6-2.7,8.3V39.8z M161.1,38.5v1.3c0.3,0,0.7,0,1-0.1c0.8-0.1,1.6-0.2,2.3-0.4
		c0.5-0.1,1-0.3,1.4-0.6l0.3-0.2c0.4-0.2,0.8-0.6,1.2-1c1.1-1.2,1.6-2.6,1.6-4.4c0-1.6-0.4-3.6-3.6-5.5l0,0c0.6,1.1,0.9,2.3,0.9,3.7
		l0,0.1l0,0.1C166.1,34.2,164.7,37.4,161.1,38.5z M16.2,37.4c2.1,1.3,5.1,2.1,9,2.4v-2.1c-4.2-0.3-7.5-1.6-9.8-3.9
		C13.8,32.2,12,29.5,12,25c0-4.4,1.8-7.2,3.3-8.7c2.3-2.3,5.5-3.6,9.8-3.9v-2.1c-3.8,0.3-6.9,1.1-9,2.4c-4.6,3.1-6.7,7-6.7,12.3
		C9.5,30.3,11.6,34.3,16.2,37.4z M235.3,37.4c2.1,1.3,5.1,2.1,9,2.4v-2.1c-4.2-0.3-7.5-1.6-9.8-3.9c-1.5-1.5-3.4-4.3-3.4-8.7
		c0-4.4,1.8-7.2,3.3-8.7c2.3-2.3,5.5-3.6,9.8-3.9v-2.1c-3.8,0.3-6.9,1.1-9,2.4c-4.6,3.1-6.7,7-6.7,12.3
		C228.6,30.3,230.7,34.3,235.3,37.4z M85,37.4c2.1,1.3,5.1,2.1,9,2.4v-2.1c-4.2-0.3-7.5-1.6-9.8-3.9c-1.5-1.5-3.4-4.3-3.4-8.7
		c0-4.4,1.8-7.2,3.3-8.7c2.3-2.3,5.5-3.6,9.8-3.9v-2.1c-3.8,0.3-6.9,1.1-9,2.4c-4.6,3.1-6.7,7-6.7,12.3C78.3,30.3,80.4,34.3,85,37.4
		z M27.4,21.8c-3.7,0-5,0.9-5.4,1.2c-0.1,0.1-0.6,0.6-0.6,2c0,1.5,0.4,1.9,0.6,2.1c0.4,0.4,1.6,1.2,5.4,1.2
		c-0.1-1.1-0.2-2.2-0.2-3.3V25C27.2,23.9,27.2,22.8,27.4,21.8z M96.2,21.8c-3.7,0-5,0.9-5.4,1.2c-0.1,0.1-0.6,0.6-0.6,2
		c0,1.5,0.4,1.9,0.6,2.1c0.4,0.4,1.6,1.2,5.4,1.2C96.1,27.2,96,26.1,96,25V25C96,23.9,96.1,22.8,96.2,21.8z M246.5,21.8
		c-3.7,0-5,0.9-5.4,1.2c-0.1,0.1-0.6,0.6-0.6,2c0,1.5,0.4,1.9,0.6,2.1c0.4,0.4,1.6,1.2,5.4,1.2c-0.1-1.1-0.2-2.2-0.2-3.3V25
		C246.3,23.9,246.4,22.8,246.5,21.8z M270.7,37.7L270.7,37.7c-3.4-0.1-6.4-1.4-8.6-3.8c-2.2-2.3-3.5-5.4-3.5-8.8l0-0.1l0-0.1
		c0.1-3.6,1.3-6.6,3.6-8.9c2.3-2.3,5.2-3.6,8.5-3.7l0.1,0l0.1,0c3.3,0.1,6.3,1.3,8.5,3.7l0.1,0.1c2.2,2.4,3.3,5.3,3.4,8.8l0,0.1
		l0,0.1c-0.1,3.5-1.2,6.4-3.4,8.8C277.1,36.3,274.1,37.6,270.7,37.7L270.7,37.7z M267.9,25c0,1.3,0.5,2,0.9,2.4l0.1,0.1
		c0.5,0.6,1,0.8,1.8,0.8c0.8,0,1.3-0.3,1.8-0.8c0.4-0.4,0.8-1.1,0.9-2.5c0-1.4-0.5-2.1-0.8-2.5c-0.5-0.5-1.1-0.7-1.8-0.8
		c-0.8,0-1.3,0.3-1.8,0.8C268.4,22.9,268,23.6,267.9,25z M120.4,37.7L120.4,37.7c-3.4-0.1-6.4-1.4-8.6-3.8c-2.2-2.3-3.5-5.4-3.5-8.8
		l0-0.1l0-0.1c0.1-3.6,1.3-6.6,3.6-8.9c2.3-2.3,5.2-3.6,8.5-3.7l0.1,0l0.1,0c3.3,0.1,6.3,1.3,8.5,3.7l0.1,0.1
		c2.2,2.4,3.3,5.3,3.4,8.8l0,0.1l0,0.1c-0.1,3.5-1.2,6.4-3.4,8.8C126.8,36.3,123.8,37.6,120.4,37.7L120.4,37.7z M117.6,25
		c0,1.3,0.5,2,0.9,2.4l0.1,0.1c0.5,0.6,1,0.8,1.8,0.8c0.8,0,1.3-0.3,1.8-0.8c0.4-0.4,0.8-1.1,0.9-2.5c0-1.4-0.5-2.1-0.8-2.5
		c-0.5-0.5-1.1-0.7-1.8-0.8c-0.8,0-1.3,0.3-1.8,0.8C118.1,22.9,117.7,23.6,117.6,25z M51.5,37.7L51.5,37.7c-3.4-0.1-6.4-1.4-8.6-3.8
		c-2.2-2.3-3.5-5.4-3.5-8.8l0-0.1l0-0.1c0.1-3.6,1.3-6.6,3.6-8.9c2.3-2.3,5.2-3.6,8.5-3.7l0.1,0l0.1,0c3.3,0.1,6.3,1.3,8.5,3.7
		l0.1,0.1c2.2,2.4,3.3,5.3,3.4,8.8l0,0.1l0,0.1c-0.1,3.5-1.2,6.4-3.4,8.8C58,36.3,55,37.6,51.5,37.7L51.5,37.7z M48.8,25
		c0,1.3,0.5,2,0.9,2.4l0.1,0.1c0.5,0.6,1,0.8,1.8,0.8c0.8,0,1.3-0.3,1.8-0.8c0.4-0.4,0.8-1.1,0.9-2.5c0-1.4-0.5-2.1-0.8-2.5
		c-0.5-0.5-1.1-0.7-1.8-0.8c-0.8,0-1.3,0.3-1.8,0.8C49.3,22.9,48.8,23.6,48.8,25z"/>
	<path class="st1" d="M270.6,45.3V33l0,0c2.1,0,3.8-0.8,5.3-2.4c1.4-1.5,2.1-3.4,2.1-5.7c0-2.3-0.7-4.2-2.1-5.7
		c-1.4-1.5-3.2-2.2-5.3-2.2l0,0V4.8l0,0c5.4,0,10,2,13.8,5.9c3.8,4,5.7,8.7,5.7,14.3c0,5.6-2,10.4-5.8,14.4
		C280.7,43.3,276.1,45.3,270.6,45.3L270.6,45.3z M270.6,4.8V17c-2,0-3.8,0.8-5.2,2.2c-1.5,1.5-2.2,3.4-2.2,5.7
		c0,2.3,0.8,4.2,2.2,5.7c1.4,1.5,3.1,2.3,5.2,2.4v12.3c-5.4,0-10-2-13.8-5.9c-3.8-4-5.8-8.8-5.8-14.4c0-5.6,2-10.4,5.8-14.4
		C260.6,6.8,265.3,4.8,270.6,4.8L270.6,4.8z M120.3,45.3V33l0,0c2.1,0,3.8-0.8,5.3-2.4c1.4-1.5,2.1-3.4,2.1-5.7
		c0-2.3-0.7-4.2-2.1-5.7c-1.4-1.5-3.2-2.2-5.3-2.2l0,0V4.8l0,0c5.4,0,10,2,13.8,5.9c3.8,4,5.7,8.7,5.7,14.3c0,5.6-2,10.4-5.8,14.4
		C130.4,43.3,125.8,45.3,120.3,45.3L120.3,45.3L120.3,45.3z M142.7,44.6h11.7V19c-0.1-2.6,0.9-4,2.8-4c1.7,0.1,2.7,0.9,2.7,2.5
		c0,1.7-1.1,2.6-3.3,2.6h-0.2v8.3l1.7,0.1c2.3,0,3.4,1,3.5,2.9c0,1.9-1.2,2.8-3.5,2.8h-1.6v10.3h2.5c1.3,0,2.5-0.1,3.7-0.2
		c1.1-0.1,2.1-0.3,3.1-0.6c1-0.3,1.9-0.7,2.7-1.2c0.9-0.5,1.7-1.1,2.4-1.9c1.9-2.1,2.8-4.6,2.8-7.6c0-4-2-7.2-5.9-9.6
		c2.2-1.7,3.3-4,3.4-6.9c0-3.4-1.4-6.2-4.1-8.5c-2.6-2.3-6-3.4-10.2-3.5c-9.2,0.2-13.9,5.2-14.2,15.2V44.6L142.7,44.6z M175.7,44.6
		h11.9V20c-0.1-3.1,1-4.7,3.2-4.7c0.9,0,1.7,0.3,2.3,0.8c0.6,0.6,0.8,1.3,0.8,2.2c0,2-1.3,3-3.9,3h-0.6V31l0.6,0
		c1.4,0,2.4,0.2,3,0.6c0.5,0.5,0.8,1.4,0.8,2.7v10.3h11.8v-12c0.1-4.3-1.6-6.9-4.9-8c3-1.8,4.5-4.3,4.5-7.5c0-3.5-1.4-6.5-4.2-8.8
		c-2.7-2.4-6.3-3.6-10.6-3.6c-4.4,0-8,1.4-10.7,4.1c-2.7,2.8-4.1,6.6-4.1,11.5V44.6L175.7,44.6z M209.1,44.6H221V5.4h-11.9V44.6
		L209.1,44.6z M249,17V5.4h-1c-6.6,0-11.7,1.1-15.2,3.3c-5.9,3.9-8.9,9.3-8.9,16.3c0,6.9,3,12.4,8.9,16.3c3.5,2.2,8.6,3.3,15.2,3.3
		h1V33h-2.3c-7.2,0-10.9-2.6-10.9-8c0-5.3,3.6-8,10.9-8H249z M120.3,4.8V17c-2,0-3.8,0.8-5.2,2.2c-1.5,1.5-2.2,3.4-2.2,5.7
		c0,2.3,0.8,4.2,2.2,5.7c1.4,1.5,3.1,2.3,5.2,2.4v12.3c-5.4,0-10-2-13.8-5.9c-3.8-4-5.8-8.8-5.8-14.4c0-5.6,2-10.4,5.8-14.4
		C110.3,6.8,114.9,4.8,120.3,4.8L120.3,4.8z M51.5,45.3V33l0,0c2.1,0,3.8-0.8,5.3-2.4c1.4-1.5,2.1-3.4,2.1-5.7
		c0-2.3-0.7-4.2-2.1-5.7c-1.4-1.5-3.2-2.2-5.3-2.2l0,0V4.8l0,0c5.4,0,10,2,13.8,5.9c3.8,4,5.7,8.7,5.7,14.3c0,5.6-2,10.4-5.8,14.4
		C61.5,43.3,56.9,45.3,51.5,45.3L51.5,45.3L51.5,45.3z M98.7,17V5.4h-1C91,5.4,86,6.5,82.5,8.7c-5.9,3.9-8.9,9.3-8.9,16.3
		c0,6.9,3,12.4,8.9,16.3c3.5,2.2,8.6,3.3,15.2,3.3h1V33h-2.3c-7.2,0-10.9-2.6-10.9-8c0-5.3,3.6-8,10.9-8H98.7z M29.9,17V5.4h-1
		c-6.6,0-11.7,1.1-15.2,3.3C7.7,12.7,4.8,18.1,4.7,25c0,6.9,3,12.4,8.9,16.3c3.5,2.2,8.6,3.3,15.2,3.3h1V33h-2.3
		c-7.2,0-10.9-2.6-10.9-8c0-5.3,3.6-8,10.9-8H29.9L29.9,17z M51.5,4.8V17c-2,0-3.8,0.8-5.2,2.2c-1.5,1.5-2.2,3.4-2.2,5.7
		c0,2.3,0.8,4.2,2.2,5.7c1.4,1.5,3.1,2.3,5.2,2.4v12.3c-5.4,0-10-2-13.8-5.9c-3.8-4-5.8-8.8-5.8-14.4c0-5.6,2-10.4,5.8-14.4
		C41.5,6.8,46.1,4.8,51.5,4.8z"/>
</g>
</svg>
